<?xml version="1.0" encoding="UTF-8" standalone="no"?>
<!-- Created with Inkscape (http://www.inkscape.org/) -->

<svg
   xmlns:dc="http://purl.org/dc/elements/1.1/"
   xmlns:cc="http://creativecommons.org/ns#"
   xmlns:rdf="http://www.w3.org/1999/02/22-rdf-syntax-ns#"
   xmlns:svg="http://www.w3.org/2000/svg"
   xmlns="http://www.w3.org/2000/svg"
   xmlns:sodipodi="http://sodipodi.sourceforge.net/DTD/sodipodi-0.dtd"
   xmlns:inkscape="http://www.inkscape.org/namespaces/inkscape"
   width="297mm"
   height="210mm"
   viewBox="0 0 297 210"
   version="1.1"
   id="svg31"
   inkscape:version="0.92.1 r15371"
   sodipodi:docname="gracle.svg">
  <defs
     id="defs25">
    <inkscape:perspective
       sodipodi:type="inkscape:persp3d"
       inkscape:vp_x="0 : 105 : 1"
       inkscape:vp_y="0 : 1000 : 0"
       inkscape:vp_z="297 : 105 : 1"
       inkscape:persp3d-origin="148.5 : 70 : 1"
       id="perspective859" />
    <inkscape:path-effect
       effect="bspline"
       id="path-effect857"
       is_visible="true"
       weight="33.333333"
       steps="2"
       helper_size="0"
       apply_no_weight="true"
       apply_with_weight="true"
       only_selected="false" />
  </defs>
  <sodipodi:namedview
     id="base"
     pagecolor="#ffffff"
     bordercolor="#ffffff"
     borderopacity="1.0"
     inkscape:pageopacity="0.0"
     inkscape:pageshadow="2"
     inkscape:zoom="0.49497475"
     inkscape:cx="445.72574"
     inkscape:cy="445.21489"
     inkscape:document-units="mm"
     inkscape:current-layer="layer4"
     showgrid="false"
     showguides="false"
     inkscape:window-width="1366"
     inkscape:window-height="768"
     inkscape:window-x="0"
     inkscape:window-y="0"
     inkscape:window-maximized="1" />
  <metadata
     id="metadata28">
    <rdf:RDF>
      <cc:Work
         rdf:about="">
        <dc:format>image/svg+xml</dc:format>
        <dc:type
           rdf:resource="http://purl.org/dc/dcmitype/StillImage" />
        <dc:title></dc:title>
      </cc:Work>
    </rdf:RDF>
  </metadata>
  <g
     inkscape:groupmode="layer"
     id="layer2"
     inkscape:label="Layer 2"
     style="display:inline;opacity:1" />
  <g
     inkscape:groupmode="layer"
     id="layer4"
     inkscape:label="Layer 3"
     style="opacity:1">
    <g
       id="g4633"
       style="stroke:#00bfff;stroke-opacity:1;stroke-width:2.4;stroke-miterlimit:4;stroke-dasharray:none;fill:#00bfff;fill-opacity:1">
      <g
         id="text877"
         style="display:inline;opacity:1;font-style:normal;font-weight:normal;font-size:90.41673279px;line-height:0;font-family:sans-serif;letter-spacing:0px;word-spacing:0px;fill:#00bfff;fill-opacity:1;stroke:#00bfff;stroke-width:2.39999996;stroke-linecap:butt;stroke-linejoin:round;stroke-miterlimit:4;stroke-dasharray:none;stroke-opacity:1;paint-order:stroke markers fill"
         transform="scale(0.99828837,1.0017146)"
         aria-label="gracle">
        <path
           sodipodi:nodetypes="cccccccsssccscscscscscscscscscs"
           inkscape:connector-curvature="0"
           id="path4549"
           style="font-style:normal;font-variant:normal;font-weight:normal;font-stretch:normal;font-family:Gilroy;-inkscape-font-specification:Gilroy;fill:#00bfff;fill-opacity:1;stroke:#00bfff;stroke-width:2.39999996;stroke-linecap:butt;stroke-linejoin:round;stroke-miterlimit:4;stroke-dasharray:none;stroke-opacity:1;paint-order:stroke markers fill"
           d="m 63.766034,85.981531 1.72772,2.169643 1.13936,1.90679 1.605665,3.103422 1.419841,5.124212 0.473281,3.533132 0.283968,3.86762 v 16.06604 c 0,6.87167 -2.260418,12.14598 -6.781255,15.82293 -4.520837,3.67695 -10.006118,5.51542 -16.455845,5.51542 -10.428063,0 -17.570985,-3.64681 -21.428766,-10.94042 l 8.408757,-4.88251 c 2.350835,4.64139 6.751116,6.96209 13.200843,6.96209 4.219447,0 7.504588,-1.11514 9.855423,-3.34542 2.411113,-2.17 3.61667,-5.21403 3.61667,-9.13209 v -5.51542 c -3.676947,5.24417 -8.921118,7.86626 -15.732512,7.86626 -6.389449,0 -11.784314,-2.26042 -16.184595,-6.78126 -4.400281,-4.58111 -6.600421,-10.09653 -6.600421,-16.54626 0,-6.449726 2.20014,-11.935007 6.600421,-16.455844 4.400281,-4.581115 9.605834,-7.249001 15.995283,-7.249001 6.811394,0 15.179215,3.666495 18.856162,8.910666 z M 36.147928,110.90239 c 2.772779,2.7125 6.208615,4.06875 10.307507,4.06875 4.098892,0 7.504589,-1.35625 10.217091,-4.06875 2.77278,-2.71251 4.15917,-6.08807 4.15917,-10.12668 0,-4.038613 -1.38639,-7.414171 -4.15917,-10.126673 -2.712502,-2.712502 -6.118199,-4.068753 -10.217091,-4.068753 -4.098892,0 -7.534728,1.356251 -10.307507,4.068753 -2.712502,2.712502 -4.068753,6.08806 -4.068753,10.126673 0,4.03861 1.356251,7.41417 4.068753,10.12668 z" />
        <path
           sodipodi:nodetypes="ccccccccccccc"
           inkscape:connector-curvature="0"
           id="path4551"
           d="m 88.245729,83.990413 c 2.700028,-2.44835 6.2764,-3.626679 9.670018,-4.77228 2.432973,-0.722742 4.931373,-1.362038 7.482923,-1.408272 v 10.578758 c -4.52866,-0.344391 -9.541037,1.332315 -12.132974,5.233928 -2.302224,3.666961 -1.704792,8.105643 -1.791205,12.223413 v 17.98602 h -9.765007 c 0.01041,-9.16406 -0.02082,-18.33125 0.01561,-27.493343 0.204474,-2.053715 0.949396,-3.994262 1.524684,-5.96105 0.600361,-1.0692 0.955574,-2.306757 1.723145,-3.261125 0.988372,-1.148236 2.114329,-2.15398 3.272802,-3.126049 -0.420985,0.445423 4e-6,0 4e-6,0 z"
           style="font-style:normal;font-variant:normal;font-weight:normal;font-stretch:normal;font-family:Gilroy;-inkscape-font-specification:Gilroy;fill:#00bfff;stroke:#00bfff;stroke-width:2.39999996;stroke-linecap:butt;stroke-linejoin:round;stroke-miterlimit:4;stroke-dasharray:none;stroke-opacity:1;paint-order:stroke markers fill;fill-opacity:1" />
        <path
           sodipodi:nodetypes="ccccccccccscsssssscccscscscsc"
           inkscape:connector-curvature="0"
           id="path4553"
           style="font-style:normal;font-variant:normal;font-weight:normal;font-stretch:normal;font-family:Gilroy;-inkscape-font-specification:Gilroy;fill:#00bfff;stroke:#00bfff;stroke-width:2.39999996;stroke-linecap:butt;stroke-linejoin:round;stroke-miterlimit:4;stroke-dasharray:none;stroke-opacity:1;paint-order:stroke markers fill;fill-opacity:1"
           d="m 150.26525,85.726905 1.35233,1.734855 1.30116,2.034442 0.93705,2.213426 1.67329,4.735914 0.66932,5.603058 -0.0669,3.93547 -0.0669,17.84791 h -9.76501 v -6.51001 c -3.67695,5.12362 -8.95126,7.68543 -15.82293,7.68543 -6.20861,0 -11.51306,-2.29056 -15.91334,-6.87168 -4.40029,-4.64139 -6.60043,-10.27736 -6.60043,-16.90793 0,-6.690835 2.20014,-12.32681 6.60043,-16.907924 4.40028,-4.581115 9.70473,-6.871672 15.91334,-6.871672 4.34033,0 9.14471,1.270874 13.07119,3.089948 1.18084,0.547058 2.82947,1.516991 3.8165,2.131657 0.53559,0.333534 1.1001,0.85457 1.40112,1.147121 0.22005,0.213857 1.22273,1.528476 1.49978,1.909985 z m -28.46866,25.898815 c 2.71251,2.7125 6.1182,4.06875 10.21709,4.06875 4.09889,0 7.50459,-1.35625 10.2171,-4.06875 2.7125,-2.77278 4.06875,-6.23876 4.06875,-10.39793 0,-4.159167 -1.35625,-7.595001 -4.06875,-10.307503 -2.71251,-2.77278 -6.11821,-4.15917 -10.2171,-4.15917 -4.09889,0 -7.50458,1.38639 -10.21709,4.15917 -2.7125,2.712502 -4.06875,6.148336 -4.06875,10.307503 0,4.15917 1.35625,7.62515 4.06875,10.39793 z" />
        <path
           inkscape:connector-curvature="0"
           id="path4555"
           style="font-style:normal;font-variant:normal;font-weight:normal;font-stretch:normal;font-family:Gilroy;-inkscape-font-specification:Gilroy;fill:#00bfff;stroke:#00bfff;stroke-width:2.39999996;stroke-linecap:butt;stroke-linejoin:round;stroke-miterlimit:4;stroke-dasharray:none;stroke-opacity:1;paint-order:stroke markers fill;fill-opacity:1"
           d="m 188.87309,125.0074 q -10.21709,0 -17.08876,-6.87168 -6.78126,-6.87167 -6.78126,-16.90793 0,-10.126669 6.78126,-16.907924 6.87167,-6.871672 17.08876,-6.871672 6.60042,0 12.02542,3.164586 5.42501,3.164585 8.13751,8.499172 l -8.40876,4.882504 q -1.53708,-3.255002 -4.70167,-5.063337 -3.07416,-1.898751 -7.14292,-1.898751 -5.9675,0 -10.03626,4.068753 -3.97833,4.068753 -3.97833,10.126669 0,6.05793 3.97833,10.12668 4.06876,4.06875 10.03626,4.06875 3.97834,0 7.14292,-1.89875 3.25501,-1.89875 4.88251,-5.06334 l 8.40875,4.79209 q -2.89333,5.425 -8.31834,8.58959 -5.425,3.16459 -12.02542,3.16459 z" />
        <path
           inkscape:connector-curvature="0"
           id="path4557"
           style="font-style:normal;font-variant:normal;font-weight:normal;font-stretch:normal;font-family:Gilroy;-inkscape-font-specification:Gilroy;fill:#00bfff;stroke:#00bfff;stroke-width:2.39999996;stroke-linecap:butt;stroke-linejoin:round;stroke-miterlimit:4;stroke-dasharray:none;stroke-opacity:1;paint-order:stroke markers fill;fill-opacity:1"
           d="M 216.275,123.83198 V 57.827763 h 9.76501 v 66.004217 z" />
        <path
           inkscape:connector-curvature="0"
           id="path4559"
           style="font-style:normal;font-variant:normal;font-weight:normal;font-stretch:normal;font-family:Gilroy;-inkscape-font-specification:Gilroy;fill:#00bfff;stroke:#00bfff;stroke-width:2.39999996;stroke-linecap:butt;stroke-linejoin:round;stroke-miterlimit:4;stroke-dasharray:none;stroke-opacity:1;paint-order:stroke markers fill;fill-opacity:1"
           d="m 244.97526,105.38696 q 1.085,5.15376 4.97292,7.95668 3.88792,2.7125 9.49376,2.7125 7.77583,0 11.66375,-5.60584 l 8.04709,4.70167 q -6.69083,9.85543 -19.80126,9.85543 -11.03084,0 -17.8121,-6.69084 -6.78125,-6.78126 -6.78125,-17.08877 0,-10.126669 6.69084,-16.907924 6.69083,-6.871672 17.17918,-6.871672 9.94584,0 16.27501,6.962088 6.41959,6.962089 6.41959,16.907928 0,1.53709 -0.36167,4.06875 z m -0.0904,-7.956668 h 26.58252 q -0.99458,-5.515421 -4.61125,-8.31834 -3.52625,-2.802918 -8.31834,-2.802918 -5.42501,0 -9.04167,2.983752 -3.61667,2.983752 -4.61126,8.137506 z" />
      </g>
      <path
         transform="scale(0.26458333)"
         sodipodi:nodetypes="cccccccccccsccccc"
         inkscape:connector-curvature="0"
         id="path4592"
         d="m 175.27344,292.70117 c -43.73912,-1.22091 -82.015062,28.8723 -90.666018,71.28321 l 36.996098,7.37695 c 0.0247,-0.15375 0.0501,-0.3074 0.0762,-0.46094 l -0.084,0.50195 0.0937,-0.54492 c 5.98684,-29.30145 34.90458,-48.26691 64.59375,-42.36328 29.6887,5.90376 48.90935,34.44093 42.9336,63.74414 -5.97502,29.30358 -34.88479,48.28034 -64.57618,42.38867 -29.48683,-5.85925 -48.69032,-34.06543 -43.04492,-63.22461 l -37.003903,-7.34765 c -2.889741,14.22599 -2.170562,28.3406 1.53356,41.41655 8.827061,31.16048 34.605213,56.4226 68.890263,63.23774 48.67183,9.67577 96.06262,-21.48817 105.85743,-69.61132 9.79529,-48.12281 -21.7131,-94.9871 -70.38086,-104.68164 -5.01434,-0.99865 -10.10573,-1.57234 -15.21875,-1.71485 z"
         style="display:inline;opacity:0.17600002;vector-effect:none;fill:#00bfff;fill-opacity:1;fill-rule:evenodd;stroke:#00bfff;stroke-width:9.07086625;stroke-linecap:butt;stroke-linejoin:bevel;stroke-miterlimit:4;stroke-dasharray:none;stroke-dashoffset:0;stroke-opacity:1" />
      <path
         sodipodi:nodetypes="ccccccccccccccc"
         inkscape:connector-curvature="0"
         id="path4600"
         transform="scale(0.26458333)"
         d="m 176.55273,291.23633 c -43.61288,-1.2244 -81.778558,28.94155 -90.404292,71.45508 l 35.791012,7.17578 c 6.36229,-28.51359 34.68971,-46.74883 63.69727,-41.00391 29.38677,5.84213 48.41249,34.08473 42.49805,63.08594 -5.91428,29.00177 -34.53049,47.78282 -63.91993,41.95117 -29.38788,-5.83154 -48.42376,-34.06577 -42.52148,-63.06836 l -5.70591,-9.09403 5.71372,9.05106 c 0.073,-0.29425 0.14852,-0.58788 0.22656,-0.88086 l -35.792964,-7.14453 c -9.746789,48.24194 21.688834,95.20563 70.218754,104.9043 48.52969,9.6981 95.78176,-21.53981 105.54882,-69.77735 9.76719,-48.23767 -21.64825,-95.21438 -70.17382,-104.93359 -5.00014,-1.00169 -10.07716,-1.57735 -15.17579,-1.7207 z"
         style="opacity:1;vector-effect:none;fill:#00bfff;fill-opacity:1;fill-rule:evenodd;stroke:#00bfff;stroke-width:9.07086625;stroke-linecap:butt;stroke-linejoin:bevel;stroke-miterlimit:4;stroke-dasharray:none;stroke-dashoffset:0;stroke-opacity:1" />
      <path
         id="path4607"
         transform="scale(0.26458333)"
         d="M 496.96484 291.20117 A 91.250005 91.60714 0 0 0 405.71484 382.80859 A 91.250005 91.60714 0 0 0 496.96484 474.41602 A 91.250005 91.60714 0 0 0 588.21484 382.80859 A 91.250005 91.60714 0 0 0 496.96484 291.20117 z M 496.96484 327.45117 A 53.357171 55.357145 0 0 1 550.32227 382.80859 A 53.357171 55.357145 0 0 1 496.96484 438.16602 A 53.357171 55.357145 0 0 1 443.60742 382.80859 A 53.357171 55.357145 0 0 1 496.96484 327.45117 z "
         style="opacity:1;vector-effect:none;fill:#00bfff;fill-opacity:1;fill-rule:evenodd;stroke:#00bfff;stroke-width:9.07086625;stroke-linecap:butt;stroke-linejoin:bevel;stroke-miterlimit:4;stroke-dasharray:none;stroke-dashoffset:0;stroke-opacity:1" />
      <path
         d="m 117.64745,98.393565 a 0.00114246,0.0058892 0 0 1 0.001,-0.0046 0.00114246,0.0058892 0 0 1 9e-4,0.0069 0.00114246,0.0058892 0 0 1 -0.001,0.0046 0.00114246,0.0058892 0 0 1 -8.9e-4,-0.0069 l 0.001,0.0012 z"
         sodipodi:end="3.3397922"
         sodipodi:start="3.3406125"
         sodipodi:ry="0.0058892015"
         sodipodi:rx="0.001142456"
         sodipodi:cy="98.39473"
         sodipodi:cx="117.64857"
         sodipodi:type="arc"
         id="path4611"
         style="opacity:0.17600002;vector-effect:none;fill:#00bfff;fill-opacity:1;fill-rule:evenodd;stroke:#00bfff;stroke-width:2.4;stroke-linecap:butt;stroke-linejoin:bevel;stroke-miterlimit:4;stroke-dasharray:none;stroke-dashoffset:0;stroke-opacity:1" />
    </g>
  </g>
</svg>
